<mxfile host="Electron" modified="2024-01-24T22:42:28.720Z" agent="Mozilla/5.0 (X11; Linux x86_64) AppleWebKit/537.36 (KHTML, like Gecko) draw.io/22.1.21 Chrome/120.0.6099.109 Electron/28.1.0 Safari/537.36" etag="VCBrv_RxkD7ZAAFwpMjA" version="22.1.21" type="device">
  <diagram name="페이지-1" id="Y9NHR4fzZHpC3tPLKjj-">
    <mxGraphModel dx="2074" dy="811" grid="1" gridSize="10" guides="1" tooltips="1" connect="1" arrows="1" fold="1" page="1" pageScale="1" pageWidth="827" pageHeight="1169" math="0" shadow="0">
      <root>
        <mxCell id="0" />
        <mxCell id="1" parent="0" />
        <mxCell id="3r571lF0asz4IjZz9wLh-3" value="" style="rounded=0;whiteSpace=wrap;html=1;fillColor=none;dashed=1;" vertex="1" parent="1">
          <mxGeometry x="30" y="20" width="600" height="520" as="geometry" />
        </mxCell>
        <mxCell id="3r571lF0asz4IjZz9wLh-2" value="" style="html=1;shadow=0;dashed=0;align=center;verticalAlign=middle;shape=mxgraph.arrows2.bendDoubleArrow;dy=15;dx=38;arrowHead=55;rounded=0;rotation=-90;fillColor=#f5f5f5;fontColor=#333333;strokeColor=#666666;" vertex="1" parent="1">
          <mxGeometry x="117.7" y="44.95" width="436.37" height="437.75" as="geometry" />
        </mxCell>
        <mxCell id="3r571lF0asz4IjZz9wLh-22" value="" style="whiteSpace=wrap;html=1;aspect=fixed;" vertex="1" parent="1">
          <mxGeometry x="160" y="120" width="160" height="160" as="geometry" />
        </mxCell>
        <mxCell id="3r571lF0asz4IjZz9wLh-23" value="" style="whiteSpace=wrap;html=1;aspect=fixed;" vertex="1" parent="1">
          <mxGeometry x="320" y="120" width="160" height="160" as="geometry" />
        </mxCell>
        <mxCell id="3r571lF0asz4IjZz9wLh-24" value="" style="whiteSpace=wrap;html=1;aspect=fixed;" vertex="1" parent="1">
          <mxGeometry x="320" y="280" width="160" height="160" as="geometry" />
        </mxCell>
        <mxCell id="3r571lF0asz4IjZz9wLh-25" value="" style="whiteSpace=wrap;html=1;aspect=fixed;" vertex="1" parent="1">
          <mxGeometry x="160" y="280" width="160" height="160" as="geometry" />
        </mxCell>
        <mxCell id="3r571lF0asz4IjZz9wLh-30" value="협력자 수" style="text;html=1;strokeColor=none;fillColor=none;align=center;verticalAlign=middle;whiteSpace=wrap;rounded=0;" vertex="1" parent="1">
          <mxGeometry x="290" y="480" width="60" height="30" as="geometry" />
        </mxCell>
        <mxCell id="3r571lF0asz4IjZz9wLh-31" value="복잡도 및 &lt;br&gt;도메인 유의성" style="text;html=1;strokeColor=none;fillColor=none;align=right;verticalAlign=middle;whiteSpace=wrap;rounded=0;" vertex="1" parent="1">
          <mxGeometry x="30" y="230" width="90" height="30" as="geometry" />
        </mxCell>
        <mxCell id="3r571lF0asz4IjZz9wLh-32" value="도메인 모델 및 알고리즘" style="text;html=1;strokeColor=none;fillColor=none;align=center;verticalAlign=middle;whiteSpace=wrap;rounded=0;" vertex="1" parent="1">
          <mxGeometry x="205" y="160" width="70" height="30" as="geometry" />
        </mxCell>
        <mxCell id="3r571lF0asz4IjZz9wLh-33" value="간단한 코드" style="text;html=1;strokeColor=none;fillColor=none;align=center;verticalAlign=middle;whiteSpace=wrap;rounded=0;" vertex="1" parent="1">
          <mxGeometry x="205" y="310" width="70" height="30" as="geometry" />
        </mxCell>
        <mxCell id="3r571lF0asz4IjZz9wLh-34" value="컨트롤러" style="text;html=1;strokeColor=none;fillColor=none;align=center;verticalAlign=middle;whiteSpace=wrap;rounded=0;" vertex="1" parent="1">
          <mxGeometry x="365" y="310" width="70" height="30" as="geometry" />
        </mxCell>
        <mxCell id="3r571lF0asz4IjZz9wLh-35" value="지나치케 &lt;br&gt;복잡한 코드" style="text;html=1;strokeColor=none;fillColor=none;align=center;verticalAlign=middle;whiteSpace=wrap;rounded=0;" vertex="1" parent="1">
          <mxGeometry x="357.5" y="160" width="85" height="30" as="geometry" />
        </mxCell>
        <mxCell id="3r571lF0asz4IjZz9wLh-36" value="테스트 필요" style="text;html=1;strokeColor=#6c8ebf;fillColor=#dae8fc;align=center;verticalAlign=middle;whiteSpace=wrap;rounded=0;" vertex="1" parent="1">
          <mxGeometry x="195" y="230" width="90" height="30" as="geometry" />
        </mxCell>
        <mxCell id="3r571lF0asz4IjZz9wLh-37" value="테스트 불필요" style="text;html=1;strokeColor=#d6b656;fillColor=#fff2cc;align=center;verticalAlign=middle;whiteSpace=wrap;rounded=0;" vertex="1" parent="1">
          <mxGeometry x="195" y="370" width="90" height="30" as="geometry" />
        </mxCell>
        <mxCell id="3r571lF0asz4IjZz9wLh-38" value="포괄적인 통합 테스트의 일부로 간단히 테스트" style="text;html=1;strokeColor=#82b366;fillColor=#d5e8d4;align=center;verticalAlign=middle;whiteSpace=wrap;rounded=0;" vertex="1" parent="1">
          <mxGeometry x="350" y="355" width="100" height="60" as="geometry" />
        </mxCell>
        <mxCell id="3r571lF0asz4IjZz9wLh-39" value="도메인 계층과 &lt;br&gt;컨트롤러 분리 필요" style="text;html=1;strokeColor=#b85450;fillColor=#f8cecc;align=center;verticalAlign=middle;whiteSpace=wrap;rounded=0;" vertex="1" parent="1">
          <mxGeometry x="347.5" y="230" width="105" height="30" as="geometry" />
        </mxCell>
        <mxCell id="3r571lF0asz4IjZz9wLh-41" value="" style="endArrow=classic;html=1;rounded=0;exitX=0;exitY=0.5;exitDx=0;exitDy=0;strokeColor=#660033;strokeWidth=3;" edge="1" parent="1" source="3r571lF0asz4IjZz9wLh-39">
          <mxGeometry width="50" height="50" relative="1" as="geometry">
            <mxPoint x="-340" y="420" as="sourcePoint" />
            <mxPoint x="310" y="245" as="targetPoint" />
          </mxGeometry>
        </mxCell>
        <mxCell id="3r571lF0asz4IjZz9wLh-42" value="" style="endArrow=classic;html=1;rounded=0;exitX=0.25;exitY=1;exitDx=0;exitDy=0;strokeColor=#660033;strokeWidth=3;" edge="1" parent="1" source="3r571lF0asz4IjZz9wLh-39">
          <mxGeometry width="50" height="50" relative="1" as="geometry">
            <mxPoint x="358" y="255" as="sourcePoint" />
            <mxPoint x="374" y="300" as="targetPoint" />
          </mxGeometry>
        </mxCell>
      </root>
    </mxGraphModel>
  </diagram>
</mxfile>
